<?xml version="1.0" encoding="UTF-8"?>
<svg id="Layer_1" xmlns="http://www.w3.org/2000/svg" version="1.1" viewBox="0 0 707.5 661.7">
  <!-- Generator: Adobe Illustrator 30.1.0, SVG Export Plug-In . SVG Version: 2.1.1 Build 136)  -->
  <defs>
    <style>
      .st0 {
        fill: none;
        stroke: #DC2626;
        stroke-linecap: round;
        stroke-linejoin: round;
        stroke-width: 66.7px;
      }
    </style>
  </defs>
  <path class="st0" d="M353.7,495h.3M353.7,261.7v133.3M167.5,628.3h372.5c59.4,0,89.1,0,106.5-12.5,15.2-10.9,25.1-27.7,27.3-46.2,2.5-21.3-11.8-47.3-40.4-99.3l-186.3-338.7c-30.5-55.4-45.7-83.1-65.8-92.3-17.5-8-37.7-8-55.2,0-20.1,9.2-35.4,36.9-65.8,92.3L74,470.3c-28.6,52-42.9,78.1-40.4,99.3,2.2,18.6,12.1,35.3,27.3,46.2,17.4,12.5,47.1,12.5,106.5,12.5Z"/>
</svg>