<?xml version="1.0" encoding="UTF-8"?>
<svg id="Layer_1" xmlns="http://www.w3.org/2000/svg" version="1.1" viewBox="0 0 666.7 650.5">
  <!-- Generator: Adobe Illustrator 30.1.0, SVG Export Plug-In . SVG Version: 2.1.1 Build 136)  -->
  <defs>
    <style>
      .st0 {
        fill: none;
        stroke: #fff;
        stroke-linecap: round;
        stroke-linejoin: round;
        stroke-width: 66.7px;
      }
    </style>
  </defs>
  <path class="st0" d="M100,243.1v214.1c0,56,0,84,10.9,105.4,9.6,18.8,24.9,34.1,43.7,43.7,21.4,10.9,49.4,10.9,105.4,10.9h146.7c56,0,84,0,105.4-10.9,18.8-9.6,34.1-24.9,43.7-43.7,10.9-21.4,10.9-49.4,10.9-105.4V83.8M633.3,317.2l-181.1-201.2c-41.2-45.8-61.8-68.6-86-77.1-21.3-7.4-44.5-7.4-65.8,0-24.3,8.4-44.8,31.3-86,77.1L33.3,317.2"/>
</svg>