<?xml version="1.0" encoding="UTF-8"?>
<svg id="Layer_1" xmlns="http://www.w3.org/2000/svg" version="1.1" viewBox="0 0 666.7 600">
  <!-- Generator: Adobe Illustrator 30.1.0, SVG Export Plug-In . SVG Version: 2.1.1 Build 136)  -->
  <defs>
    <style>
      .st0 {
        fill: #2563eb;
        stroke: #fff;
        stroke-linecap: round;
        stroke-linejoin: round;
        stroke-width: 66.7px;
      }
    </style>
  </defs>
  <path class="st0" d="M400,33.3h-200c-31.1,0-46.6,0-58.8,5.1-16.3,6.8-29.3,19.7-36.1,36.1-5.1,12.3-5.1,44.4-5.1,75.5v16.7M133.3,266.7h233.3M100,166.7c4.1,0,8.5,0,13.3,0h273.3c28,0,42,0,52.7,5.4,9.4,4.8,17.1,12.4,21.9,21.9,5.4,10.7,5.4,24.7,5.4,52.7v213.3c0,37.3,0,56-7.3,70.3-6.4,12.5-16.6,22.7-29.1,29.1-14.3,7.3-32.9,7.3-70.3,7.3h-220c-37.3,0-56,0-70.3-7.3-12.5-6.4-22.7-16.6-29.1-29.1-7.3-14.3-7.3-32.9-7.3-70.3v-213.3c0-28,0-42,5.4-52.7,4.8-9.4,12.4-17.1,21.9-21.9,8.8-4.5,20-5.3,39.4-5.4ZM466.7,300l126.3-75.8c13.2-7.9,19.8-11.9,25.3-11.4,4.7.4,9.1,2.9,11.9,6.7,3.2,4.4,3.2,12.1,3.2,27.5v239.1c0,15.4,0,23.1-3.2,27.5-2.8,3.8-7.1,6.3-11.9,6.7-5.4.5-12-3.5-25.3-11.4l-126.3-75.8"/>
</svg>